<svg width="32" height="32" viewBox="0 0 32 32" fill="none" xmlns="http://www.w3.org/2000/svg">
<path d="M29.3337 16C29.3337 17.7509 28.9888 19.4847 28.3187 21.1024C27.6487 22.7201 26.6665 24.1899 25.4284 25.4281C24.1903 26.6662 22.7204 27.6483 21.1028 28.3184C19.4851 28.9884 17.7513 29.3333 16.0003 29.3333C14.2494 29.3333 12.5156 28.9884 10.8979 28.3184C9.2802 27.6483 7.81035 26.6662 6.57223 25.4281C5.33412 24.1899 4.35199 22.7201 3.68193 21.1024C3.01187 19.4847 2.66699 17.7509 2.66699 16C2.66699 14.249 3.01187 12.5152 3.68193 10.8975C4.352 9.27984 5.33412 7.80998 6.57224 6.57187C7.81035 5.33375 9.28021 4.35163 10.8979 3.68156C12.5156 3.0115 14.2494 2.66663 16.0003 2.66663C17.7513 2.66663 19.4851 3.0115 21.1028 3.68157C22.7204 4.35163 24.1903 5.33376 25.4284 6.57187C26.6665 7.80999 27.6487 9.27984 28.3187 10.8975C28.9888 12.5152 29.3337 14.249 29.3337 16L29.3337 16Z" stroke="white" stroke-width="2"/>
<path d="M21.3337 16C21.3337 17.7509 21.1957 19.4847 20.9277 21.1024C20.6597 22.7201 20.2668 24.1899 19.7716 25.4281C19.2763 26.6662 18.6884 27.6483 18.0413 28.3184C17.3942 28.9884 16.7007 29.3333 16.0003 29.3333C15.2999 29.3333 14.6064 28.9884 13.9593 28.3184C13.3123 27.6483 12.7243 26.6662 12.2291 25.4281C11.7338 24.1899 11.341 22.7201 11.073 21.1024C10.8049 19.4847 10.667 17.7509 10.667 16C10.667 14.249 10.8049 12.5152 11.073 10.8975C11.341 9.27984 11.7338 7.80998 12.2291 6.57187C12.7243 5.33375 13.3123 4.35163 13.9593 3.68156C14.6064 3.0115 15.2999 2.66663 16.0003 2.66663C16.7007 2.66663 17.3942 3.0115 18.0413 3.68157C18.6884 4.35163 19.2763 5.33376 19.7716 6.57187C20.2668 7.80999 20.6597 9.27984 20.9277 10.8975C21.1957 12.5152 21.3337 14.249 21.3337 16L21.3337 16Z" stroke="white" stroke-width="2"/>
<path d="M2.66699 16H29.3337" stroke="white" stroke-width="1.5" stroke-linecap="round"/>
</svg>
