<svg width="50" height="50" viewBox="0 0 50 50" fill="none" xmlns="http://www.w3.org/2000/svg">
<path d="M6.25 21.7014C6.25 15.0398 6.25 11.7089 7.03649 10.5884C7.82298 9.46781 10.9548 8.39576 17.2186 6.25167L18.4119 5.84318C21.677 4.72552 23.3096 4.16669 25 4.16669C26.6904 4.16669 28.323 4.72552 31.5881 5.84318L32.7814 6.25167C39.0452 8.39576 42.177 9.46781 42.9635 10.5884C43.75 11.7089 43.75 15.0398 43.75 21.7014C43.75 22.7076 43.75 23.7988 43.75 24.982C43.75 36.728 34.9188 42.4281 29.378 44.8485C27.875 45.5051 27.1235 45.8334 25 45.8334C22.8765 45.8334 22.125 45.5051 20.622 44.8485C15.0812 42.4281 6.25 36.728 6.25 24.982C6.25 23.7988 6.25 22.7076 6.25 21.7014Z" stroke="white" stroke-width="2"/>
<path d="M35.4173 25C35.4173 26.3679 35.1479 27.7225 34.6244 28.9863C34.1009 30.2501 33.3336 31.3984 32.3663 32.3657C31.3991 33.333 30.2507 34.1002 28.9869 34.6237C27.7231 35.1472 26.3686 35.4166 25.0007 35.4166C23.6327 35.4166 22.2782 35.1472 21.0144 34.6237C19.7506 34.1002 18.6022 33.333 17.635 32.3657C16.6677 31.3984 15.9004 30.2501 15.3769 28.9863C14.8534 27.7225 14.584 26.3679 14.584 25C14.584 23.632 14.8534 22.2775 15.3769 21.0137C15.9004 19.7499 16.6677 18.6016 17.635 17.6343C18.6022 16.667 19.7506 15.8997 21.0144 15.3762C22.2782 14.8527 23.6327 14.5833 25.0007 14.5833C26.3686 14.5833 27.7231 14.8527 28.9869 15.3762C30.2507 15.8997 31.3991 16.667 32.3663 17.6343C33.3336 18.6016 34.1009 19.7499 34.6244 21.0137C35.1479 22.2775 35.4173 23.632 35.4173 25L35.4173 25Z" stroke="white" stroke-width="2"/>
<path d="M28.8501 28.9863C29.0595 27.7225 29.1673 26.3679 29.1673 25C29.1673 23.632 29.0595 22.2775 28.8501 21.0137C28.6408 19.7499 28.3338 18.6016 27.9469 17.6343C27.56 16.667 27.1007 15.8997 26.5952 15.3762C26.0896 14.8527 25.5478 14.5833 25.0007 14.5833C24.4535 14.5833 23.9117 14.8527 23.4061 15.3762C22.9006 15.8997 22.4413 16.667 22.0544 17.6343C21.6675 18.6016 21.3605 19.7499 21.1512 21.0137C20.9418 22.2775 20.834 23.632 20.834 25C20.834 26.3679 20.9418 27.7225 21.1512 28.9863C21.3605 30.2501 21.6675 31.3984 22.0544 32.3657C22.4413 33.333 22.9006 34.1002 23.4061 34.6237C23.9117 35.1472 24.4535 35.4166 25.0006 35.4166C25.5478 35.4166 26.0896 35.1472 26.5952 34.6237C27.1007 34.1002 27.56 33.333 27.9469 32.3657C28.3338 31.3984 28.6408 30.2501 28.8501 28.9863Z" stroke="white" stroke-width="2"/>
<path d="M14.584 25H35.4173" stroke="white" stroke-width="1.5" stroke-linecap="round"/>
</svg>
