<svg width="639" height="845" viewBox="0 0 639 845" fill="none" xmlns="http://www.w3.org/2000/svg">
<path d="M1.16116e-05 483.82C9.87473e-06 444.085 32.3233 411.761 72.0582 411.761L370.585 411.761C393.335 411.761 411.761 393.335 411.761 370.585L411.761 267.645C411.761 244.895 393.335 226.469 370.585 226.469L277.939 226.469C238.204 226.469 205.881 194.145 205.881 154.411L205.881 72.0582C205.881 32.3233 238.204 1.74858e-05 277.939 1.57489e-05L360.291 1.21491e-05C400.026 1.04123e-05 432.349 32.3233 432.349 72.0582L432.349 164.705C432.349 187.454 450.776 205.881 473.525 205.881L566.172 205.881C605.907 205.881 638.23 238.204 638.23 277.939L638.23 360.291C638.23 400.026 605.907 432.349 566.172 432.349L473.525 432.349C450.776 432.349 432.349 450.776 432.349 473.525L432.349 576.466C432.349 599.216 450.776 617.642 473.525 617.642L566.172 617.642C605.907 617.642 638.23 649.965 638.23 689.7L638.23 772.052C638.23 811.787 605.907 844.111 566.172 844.111L483.82 844.111C444.085 844.111 411.761 811.787 411.761 772.052L411.761 679.406C411.761 656.656 393.335 638.23 370.585 638.23L267.645 638.23C244.895 638.23 226.469 656.656 226.469 679.406L226.469 772.052C226.469 811.787 194.145 844.111 154.411 844.111L72.0583 844.111C32.3233 844.111 2.59475e-05 811.787 2.42106e-05 772.052L1.16116e-05 483.82Z" fill="#354585"/>
</svg>
