<svg width="50" height="50" viewBox="0 0 50 50" fill="none" xmlns="http://www.w3.org/2000/svg">
<path d="M16.6667 16.667H33.3334V33.3337H16.6667V16.667Z" stroke="#3B91CF" stroke-width="2"/>
<path d="M33.3333 33.335L39.5833 33.334C43.0351 33.3334 45.8338 36.1312 45.8343 39.583C45.8348 43.0348 43.0371 45.8334 39.5853 45.834C36.1335 45.8345 33.3348 43.0367 33.3343 39.585L33.3333 33.335Z" stroke="#3B91CF" stroke-width="2"/>
<path d="M16.6687 33.335L10.4187 33.334C6.96693 33.3334 4.16827 36.1312 4.16772 39.583C4.16718 43.0348 6.96496 45.8334 10.4167 45.834C13.8685 45.8345 16.6672 43.0367 16.6677 39.585L16.6687 33.335Z" stroke="#3B91CF" stroke-width="2"/>
<path d="M33.3333 16.667L39.5833 16.668C43.0351 16.6685 45.8338 13.8707 45.8343 10.419C45.8348 6.96717 43.0371 4.16851 39.5853 4.16797C36.1335 4.16743 33.3348 6.9652 33.3343 10.417L33.3333 16.667Z" stroke="#3B91CF" stroke-width="2"/>
<path d="M16.6687 16.667L10.4187 16.668C6.96693 16.6685 4.16827 13.8707 4.16772 10.419C4.16718 6.96717 6.96496 4.16851 10.4167 4.16797C13.8685 4.16743 16.6672 6.9652 16.6677 10.417L16.6687 16.667Z" stroke="#3B91CF" stroke-width="2"/>
</svg>
