<svg width="101" height="35" viewBox="0 0 101 35" fill="none" xmlns="http://www.w3.org/2000/svg">
<g clip-path="url(#clip0_2001_4359)">
<path d="M21.073 0.813477L21.1975 0.937878V30.8392L21.073 30.9636H12.3362L12.2116 30.8392V0.937878L12.3362 0.813477H21.073Z" fill="white"/>
<path d="M55.6049 22.5256L58.1718 26.2901L58.1302 26.4974C53.9893 30.3033 48.2328 31.8322 44.2579 31.9981C35.5626 32.3695 25.3348 26.9932 25.2103 16.0747C25.1291 6.14788 34.2377 -0.138882 43.9276 0.0684529C47.944 0.10992 53.038 1.26739 57.7584 4.99041L57.7999 5.23921L55.1915 9.16777L54.9424 9.20924C52.6643 7.47122 49.0631 5.61062 45.1695 5.61062C38.088 5.61062 34.6095 10.7814 34.6095 16.1162C34.6095 21.9883 38.6674 26.3315 45.2922 26.3315C49.6805 26.3315 53.242 23.9733 55.354 22.4859L55.6031 22.5274L55.6049 22.5256Z" fill="white"/>
<path d="M91.7903 22.4863C91.7073 26.3734 87.94 32.4943 74.398 31.957C69.6776 31.7912 64.5005 30.2605 60.6502 27.5723V27.365L63.3416 23.2706H63.5907C66.2407 24.7183 70.0098 26.0417 74.0677 26.3319C78.4559 26.6637 82.0174 25.1745 82.0589 23.5194C82.142 21.4929 79.9054 20.8312 71.5405 19.0518C61.1051 16.8179 60.8578 11.3172 60.8578 9.4981C60.8578 7.05696 63.4662 -0.511683 77.0064 0.0273889C81.7268 0.234724 86.9039 1.7654 90.7542 4.41208V4.61941L88.1873 8.7553L87.9382 8.79677C85.0392 7.34903 81.4777 5.98422 77.4613 5.69576C73.0712 5.36402 70.3798 6.97763 70.3798 8.46684C70.4213 10.4933 73.0712 10.5762 80.8567 12.4369C84.8731 13.387 91.9131 15.4153 91.7885 22.4863H91.7903Z" fill="white"/>
<path d="M101 35.0003H93.581V31.3223H97.3158V27.9473H101V35.0003Z" fill="white"/>
<path d="M101 11.75H97.3157V24.1685H101V11.75Z" fill="white"/>
<path d="M101 7.7115H97.3158V4.64655H93.581V0.966797H101V7.7115Z" fill="white"/>
<path d="M7.41904 35.0003H0V27.9473H3.68425V31.3223H7.41904V35.0003Z" fill="white"/>
<path d="M32.0788 31.3223H24.1489V35.002H32.0788V31.3223Z" fill="white"/>
<path d="M62.9824 31.3223H55.0525V35.002H62.9824V31.3223Z" fill="white"/>
<path d="M3.68425 11.75H0V24.1685H3.68425V11.75Z" fill="white"/>
<path d="M3.68425 7.7115H0V0.966797H7.41904V4.64655H3.68425V7.7115Z" fill="white"/>
</g>
<defs>
<clipPath id="clip0_2001_4359">
<rect width="101" height="35" fill="white"/>
</clipPath>
</defs>
</svg>
