<svg width="51" height="50" viewBox="0 0 51 50" fill="none" xmlns="http://www.w3.org/2000/svg">
<path d="M4.66699 25.0001C4.66699 15.1792 4.66699 10.2687 7.71796 7.21772C10.7689 4.16675 15.6794 4.16675 25.5003 4.16675C35.3213 4.16675 40.2317 4.16675 43.2827 7.21772C46.3337 10.2687 46.3337 15.1792 46.3337 25.0001C46.3337 34.821 46.3337 39.7315 43.2827 42.7824C40.2317 45.8334 35.3213 45.8334 25.5003 45.8334C15.6794 45.8334 10.7689 45.8334 7.71796 42.7824C4.66699 39.7315 4.66699 34.821 4.66699 25.0001Z" stroke="#3B91CF" stroke-width="2"/>
<path d="M15.083 37.5V18.75" stroke="#3B91CF" stroke-width="2" stroke-linecap="round"/>
<path d="M25.5 37.5V12.5" stroke="#3B91CF" stroke-width="2" stroke-linecap="round"/>
<path d="M35.917 37.4999V27.0833" stroke="#3B91CF" stroke-width="2" stroke-linecap="round"/>
</svg>
