<svg width="50" height="50" viewBox="0 0 50 50" fill="none" xmlns="http://www.w3.org/2000/svg">
<path d="M25.0003 4.16675C36.5063 4.16675 45.8337 13.4941 45.8337 25.0001C45.8337 36.506 36.5063 45.8334 25.0003 45.8334C13.4944 45.8334 4.16699 36.506 4.16699 25.0001C4.16699 19.1722 6.55999 13.9032 10.417 10.1221" stroke="#3B91CF" stroke-width="2" stroke-linecap="round"/>
<path d="M10.417 25.0001C10.417 33.0542 16.9462 39.5834 25.0003 39.5834C33.0545 39.5834 39.5837 33.0542 39.5837 25.0001C39.5837 16.9459 33.0545 10.4167 25.0003 10.4167" stroke="#3B91CF" stroke-width="2" stroke-linecap="round"/>
<path d="M25 33.3334C29.6024 33.3334 33.3333 29.6025 33.3333 25.0001C33.3333 20.3977 29.6024 16.6667 25 16.6667" stroke="#3B91CF" stroke-width="1.5" stroke-linecap="round"/>
</svg>
