<svg width="144" height="50" viewBox="0 0 144 50" fill="none" xmlns="http://www.w3.org/2000/svg">
<g clip-path="url(#clip0_199_1275)">
<path d="M30.0446 1.16162L30.2222 1.33934V44.0556L30.0446 44.2333H17.5882L17.4106 44.0556V1.33934L17.5882 1.16162H30.0446Z" fill="#293579"/>
<path d="M79.278 32.1795L82.9377 37.5574L82.8785 37.8536C76.9746 43.2906 68.7673 45.4747 63.1001 45.7117C50.7029 46.2423 36.1207 38.5618 35.9432 22.9641C35.8273 8.78283 48.8139 -0.198264 62.6292 0.0979293C68.3555 0.157168 75.6183 1.8107 82.3484 7.1293L82.4076 7.48473L78.6886 13.0969L78.3335 13.1562C75.0856 10.6733 69.9512 8.0153 64.3998 8.0153C54.3035 8.0153 49.3441 15.4021 49.3441 23.0233C49.3441 31.412 55.1296 37.6166 64.5748 37.6166C70.8313 37.6166 75.9091 34.2477 78.9203 32.1229L79.2754 32.1821L79.278 32.1795Z" fill="#293579"/>
<path d="M130.869 32.1228C130.751 37.6758 125.38 46.4199 106.072 45.6524C99.3424 45.4154 91.9612 43.2288 86.4717 39.3886V39.0924L90.309 33.2432H90.6641C94.4422 35.3114 99.816 37.2019 105.602 37.6165C111.858 38.0905 116.936 35.963 116.995 33.5986C117.113 30.7037 113.925 29.7584 101.998 27.2163C87.1202 24.0251 86.7677 16.167 86.7677 13.5682C86.7677 10.0809 90.4866 -0.731464 109.791 0.0386387C116.521 0.334832 123.903 2.52151 129.392 6.30248V6.59868L125.732 12.5071L125.377 12.5663C121.244 10.4981 116.166 8.5484 110.44 8.1363C104.181 7.6624 100.344 9.96755 100.344 12.095C100.403 14.99 104.181 15.1084 115.281 17.7665C121.007 19.1238 131.044 22.0213 130.867 32.1228H130.869Z" fill="#293579"/>
<path d="M144 50H133.422V44.7458H138.747V39.9243H144V50Z" fill="#3B91CF"/>
<path d="M144 16.7852H138.747V34.5258H144V16.7852Z" fill="#3B91CF"/>
<path d="M144 11.0158H138.747V6.63728H133.422V1.38049H144V11.0158Z" fill="#3B91CF"/>
<path d="M10.5776 50H0V39.9243H5.25279V44.7458H10.5776V50Z" fill="#3B91CF"/>
<path d="M45.7362 44.7458H34.4302V50.0026H45.7362V44.7458Z" fill="#3B91CF"/>
<path d="M89.7967 44.7458H78.4907V50.0026H89.7967V44.7458Z" fill="#3B91CF"/>
<path d="M5.25279 16.7852H0V34.5258H5.25279V16.7852Z" fill="#3B91CF"/>
<path d="M5.25279 11.0158H0V1.38049H10.5776V6.63728H5.25279V11.0158Z" fill="#3B91CF"/>
</g>
<defs>
<clipPath id="clip0_199_1275">
<rect width="144" height="50" fill="white"/>
</clipPath>
</defs>
</svg>
