<svg xmlns="http://www.w3.org/2000/svg">
    <symbol id="pen" viewBox="0 0 24 24" fill="none" xmlns="http://www.w3.org/2000/svg">
        <path
            d="M22 10.5V12C22 16.714 22 19.0711 20.5355 20.5355C19.0711 22 16.714 22 12 22C7.28595 22 4.92893 22 3.46447 20.5355C2 19.0711 2 16.714 2 12C2 7.28595 2 4.92893 3.46447 3.46447C4.92893 2 7.28595 2 12 2H13.5"
            stroke="currentColor" stroke-width="1.5" stroke-linecap="round" />
        <path
            d="M16.652 3.45506L17.3009 2.80624C18.3759 1.73125 20.1188 1.73125 21.1938 2.80624C22.2687 3.88124 22.2687 5.62415 21.1938 6.69914L20.5449 7.34795M16.652 3.45506C16.652 3.45506 16.7331 4.83379 17.9497 6.05032C19.1662 7.26685 20.5449 7.34795 20.5449 7.34795M16.652 3.45506L10.6872 9.41993C10.2832 9.82394 10.0812 10.0259 9.90743 10.2487C9.70249 10.5114 9.52679 10.7957 9.38344 11.0965C9.26191 11.3515 9.17157 11.6225 8.99089 12.1646L8.41242 13.9M20.5449 7.34795L14.5801 13.3128C14.1761 13.7168 13.9741 13.9188 13.7513 14.0926C13.4886 14.2975 13.2043 14.4732 12.9035 14.6166C12.6485 14.7381 12.3775 14.8284 11.8354 15.0091L10.1 15.5876M10.1 15.5876L8.97709 15.9619C8.71035 16.0508 8.41626 15.9814 8.21744 15.7826C8.01862 15.5837 7.9492 15.2897 8.03811 15.0229L8.41242 13.9M10.1 15.5876L8.41242 13.9"
            stroke="currentColor" stroke-width="1.5" />
    </symbol>
    <symbol id="file" viewBox="0 0 24 24" fill="none"
        xmlns="http://www.w3.org/2000/svg">
        <path
            d="M15.3929 4.05365L14.8912 4.61112L15.3929 4.05365ZM19.3517 7.61654L18.85 8.17402L19.3517 7.61654ZM21.654 10.1541L20.9689 10.4592V10.4592L21.654 10.1541ZM3.17157 20.8284L3.7019 20.2981H3.7019L3.17157 20.8284ZM20.8284 20.8284L20.2981 20.2981L20.2981 20.2981L20.8284 20.8284ZM14 22V21.25H10V22V22.75H14V22ZM2 14H2.75V10H2H1.25V14H2ZM22 13.5629H21.25V14H22H22.75V13.5629H22ZM15.3929 4.05365L14.8912 4.61112L18.85 8.17402L19.3517 7.61654L19.8534 7.05907L15.8947 3.49618L15.3929 4.05365ZM22 13.5629H22.75C22.75 11.8745 22.7651 10.8055 22.3391 9.84897L21.654 10.1541L20.9689 10.4592C21.2349 11.0565 21.25 11.742 21.25 13.5629H22ZM19.3517 7.61654L18.85 8.17402C20.2034 9.3921 20.7029 9.86199 20.9689 10.4592L21.654 10.1541L22.3391 9.84897C21.9131 8.89241 21.1084 8.18853 19.8534 7.05907L19.3517 7.61654ZM10.0298 2V2.75C11.6116 2.75 12.2085 2.76158 12.7405 2.96573L13.0092 2.26552L13.2779 1.5653C12.4261 1.23842 11.498 1.25 10.0298 1.25V2ZM15.3929 4.05365L15.8947 3.49618C14.8087 2.51878 14.1297 1.89214 13.2779 1.5653L13.0092 2.26552L12.7405 2.96573C13.2727 3.16993 13.7215 3.55836 14.8912 4.61112L15.3929 4.05365ZM10 22V21.25C8.09318 21.25 6.73851 21.2484 5.71085 21.1102C4.70476 20.975 4.12511 20.7213 3.7019 20.2981L3.17157 20.8284L2.64124 21.3588C3.38961 22.1071 4.33855 22.4392 5.51098 22.5969C6.66182 22.7516 8.13558 22.75 10 22.75V22ZM2 14H1.25C1.25 15.8644 1.24841 17.3382 1.40313 18.489C1.56076 19.6614 1.89288 20.6104 2.64124 21.3588L3.17157 20.8284L3.7019 20.2981C3.27869 19.8749 3.02502 19.2952 2.88976 18.2892C2.75159 17.2615 2.75 15.9068 2.75 14H2ZM14 22V22.75C15.8644 22.75 17.3382 22.7516 18.489 22.5969C19.6614 22.4392 20.6104 22.1071 21.3588 21.3588L20.8284 20.8284L20.2981 20.2981C19.8749 20.7213 19.2952 20.975 18.2892 21.1102C17.2615 21.2484 15.9068 21.25 14 21.25V22ZM22 14H21.25C21.25 15.9068 21.2484 17.2615 21.1102 18.2892C20.975 19.2952 20.7213 19.8749 20.2981 20.2981L20.8284 20.8284L21.3588 21.3588C22.1071 20.6104 22.4392 19.6614 22.5969 18.489C22.7516 17.3382 22.75 15.8644 22.75 14H22ZM2 10H2.75C2.75 8.09318 2.75159 6.73851 2.88976 5.71085C3.02502 4.70476 3.27869 4.12511 3.7019 3.7019L3.17157 3.17157L2.64124 2.64124C1.89288 3.38961 1.56076 4.33855 1.40313 5.51098C1.24841 6.66182 1.25 8.13558 1.25 10H2ZM10.0298 2V1.25C8.15538 1.25 6.67442 1.24842 5.51887 1.40307C4.34232 1.56054 3.39019 1.8923 2.64124 2.64124L3.17157 3.17157L3.7019 3.7019C4.12453 3.27928 4.70596 3.02525 5.71785 2.88982C6.75075 2.75158 8.11311 2.75 10.0298 2.75V2Z"
            fill="currentColor" />
        <path d="M6 14.5H14" stroke="currentColor" stroke-width="1.5" stroke-linecap="round" />
        <path d="M6 18H11.5" stroke="currentColor" stroke-width="1.5" stroke-linecap="round" />
        <path d="M13 2.5V5C13 7.35702 13 8.53553 13.7322 9.26777C14.4645 10 15.643 10 18 10H22"
            stroke="currentColor" stroke-width="1.5" />
    </symbol>

    <symbol id="card" viewBox="0 0 24 24" fill="none"
        xmlns="http://www.w3.org/2000/svg">
        <path
            d="M2 12C2 8.22876 2 6.34315 3.17157 5.17157C4.34315 4 6.22876 4 10 4H14C17.7712 4 19.6569 4 20.8284 5.17157C22 6.34315 22 8.22876 22 12C22 15.7712 22 17.6569 20.8284 18.8284C19.6569 20 17.7712 20 14 20H10C6.22876 20 4.34315 20 3.17157 18.8284C2 17.6569 2 15.7712 2 12Z"
            stroke="currentColor" stroke-width="1.5" />
        <path d="M10 16.5H6" stroke="currentColor" stroke-width="1.5" stroke-linecap="round" />
        <path d="M8 13.5H6" stroke="currentColor" stroke-width="1.5" stroke-linecap="round" />
        <path d="M2 10L22 10" stroke="currentColor" stroke-width="1.5" stroke-linecap="round" />
        <path
            d="M14 15C14 14.0572 14 13.5858 14.2929 13.2929C14.5858 13 15.0572 13 16 13C16.9428 13 17.4142 13 17.7071 13.2929C18 13.5858 18 14.0572 18 15C18 15.9428 18 16.4142 17.7071 16.7071C17.4142 17 16.9428 17 16 17C15.0572 17 14.5858 17 14.2929 16.7071C14 16.4142 14 15.9428 14 15Z"
            stroke="currentColor" stroke-width="1.5" />
    </symbol>
    <symbol id="programming" viewBox="0 0 24 24"
        fill="none">
        <path
            d="M2 12C2 7.28595 2 4.92893 3.46447 3.46447C4.92893 2 7.28595 2 12 2C16.714 2 19.0711 2 20.5355 3.46447C22 4.92893 22 7.28595 22 12C22 16.714 22 19.0711 20.5355 20.5355C19.0711 22 16.714 22 12 22C7.28595 22 4.92893 22 3.46447 20.5355C2 19.0711 2 16.714 2 12Z"
            stroke="currentColor" stroke-width="1.5" />
        <path d="M17 15H14.5H12" stroke="currentColor" stroke-width="1.5" stroke-linecap="round" />
        <path
            d="M7 10L7.2344 10.1953C8.51608 11.2634 9.15693 11.7974 9.15693 12.5C9.15693 13.2026 8.51608 13.7366 7.2344 14.8047L7 15"
            stroke="currentColor" stroke-width="1.5" stroke-linecap="round" />
    </symbol>
    <symbol id="hashtag" viewBox="0 0 24 24"
        fill="none">
        <path
            d="M17.5433 21.6939L16.8979 21.3119L16.8979 21.3119L17.5433 21.6939ZM17.8144 21.236L18.4598 21.618L18.4598 21.618L17.8144 21.236ZM16.1856 21.236L15.5402 21.618L15.5402 21.618L16.1856 21.236ZM16.4567 21.6939L17.1021 21.3119L17.1021 21.3119L16.4567 21.6939ZM12.1903 18.9567L12.8832 18.6697H12.8832L12.1903 18.9567ZM14.8948 20.4958L14.8819 21.2457H14.8819L14.8948 20.4958ZM13.5433 20.3097L13.2563 21.0026H13.2563L13.5433 20.3097ZM21.8097 18.9567L22.5026 19.2438V19.2437L21.8097 18.9567ZM19.1052 20.4958L19.0923 19.7459L19.1052 20.4958ZM20.4567 20.3097L20.7437 21.0026L20.4567 20.3097ZM20.8062 12.3684L20.4144 13.0079L20.8062 12.3684ZM21.6316 13.1938L22.2711 12.8019V12.8019L21.6316 13.1938ZM13.1938 12.3684L12.8019 11.7289L13.1938 12.3684ZM12.3684 13.1938L11.7289 12.8019L12.3684 13.1938ZM15.7014 20.605L16.0785 19.9566L16.0785 19.9566L15.7014 20.605ZM17.5433 21.6939L18.1887 22.0759L18.4598 21.618L17.8144 21.236L17.169 20.8539L16.8979 21.3119L17.5433 21.6939ZM16.1856 21.236L15.5402 21.618L15.8112 22.0759L16.4567 21.6939L17.1021 21.3119L16.831 20.8539L16.1856 21.236ZM17.5433 21.6939L16.8979 21.3119C16.925 21.2661 16.9725 21.25 17 21.25C17.0275 21.25 17.075 21.2661 17.1021 21.3119L16.4567 21.6939L15.8112 22.0759C16.3432 22.9747 17.6567 22.9747 18.1887 22.0759L17.5433 21.6939ZM16.25 12V12.75H17.75V12V11.25H16.25V12ZM22 16.25H21.25V16.75H22H22.75V16.25H22ZM12 16.75H12.75V16.25H12H11.25V16.75H12ZM12 16.75H11.25C11.25 17.3222 11.2496 17.7889 11.2755 18.169C11.3019 18.5558 11.3581 18.9074 11.4974 19.2437L12.1903 18.9567L12.8832 18.6697C12.8322 18.5466 12.7932 18.3773 12.772 18.0669C12.7504 17.7497 12.75 17.3427 12.75 16.75H12ZM14.8948 20.4958L14.9077 19.7459C14.28 19.7351 14.0158 19.6937 13.8303 19.6168L13.5433 20.3097L13.2563 21.0026C13.7311 21.1993 14.2543 21.2348 14.8819 21.2457L14.8948 20.4958ZM12.1903 18.9567L11.4974 19.2437C11.8272 20.0401 12.4599 20.6728 13.2563 21.0026L13.5433 20.3097L13.8303 19.6168C13.4015 19.4392 13.0608 19.0985 12.8832 18.6697L12.1903 18.9567ZM22 16.75H21.25C21.25 17.3427 21.2496 17.7497 21.228 18.0669C21.2068 18.3773 21.1678 18.5466 21.1168 18.6697L21.8097 18.9567L22.5026 19.2437C22.6419 18.9074 22.6981 18.5558 22.7245 18.169C22.7504 17.7889 22.75 17.3222 22.75 16.75H22ZM19.1052 20.4958L19.1181 21.2457C19.7457 21.2348 20.2689 21.1993 20.7437 21.0026L20.4567 20.3097L20.1697 19.6168C19.9842 19.6937 19.72 19.7351 19.0923 19.7459L19.1052 20.4958ZM21.8097 18.9567L21.1168 18.6697C20.9392 19.0985 20.5985 19.4392 20.1697 19.6168L20.4567 20.3097L20.7437 21.0026C21.5401 20.6728 22.1728 20.0401 22.5026 19.2438L21.8097 18.9567ZM17.75 12V12.75C18.5829 12.75 19.1549 12.7508 19.5955 12.7927C20.0249 12.8335 20.2514 12.908 20.4144 13.0079L20.8062 12.3684L21.1981 11.7289C20.7599 11.4604 20.2767 11.3507 19.7374 11.2994C19.2094 11.2492 18.5538 11.25 17.75 11.25V12ZM22 16.25H22.75C22.75 15.4462 22.7508 14.7906 22.7006 14.2626C22.6493 13.7233 22.5396 13.2401 22.2711 12.8019L21.6316 13.1938L20.9921 13.5856C21.092 13.7486 21.1665 13.9751 21.2073 14.4045C21.2492 14.8451 21.25 15.4171 21.25 16.25H22ZM20.8062 12.3684L20.4144 13.0079C20.6498 13.1522 20.8478 13.3502 20.9921 13.5856L21.6316 13.1938L22.2711 12.8019C22.0031 12.3646 21.6354 11.9969 21.1981 11.7289L20.8062 12.3684ZM16.25 12V11.25C15.4462 11.25 14.7906 11.2492 14.2626 11.2994C13.7233 11.3507 13.2401 11.4604 12.8019 11.7289L13.1938 12.3684L13.5856 13.0079C13.7486 12.908 13.9751 12.8335 14.4045 12.7927C14.8451 12.7508 15.4171 12.75 16.25 12.75V12ZM12 16.25H12.75C12.75 15.4171 12.7508 14.8451 12.7927 14.4045C12.8335 13.9751 12.908 13.7486 13.0079 13.5856L12.3684 13.1938L11.7289 12.8019C11.4604 13.2401 11.3507 13.7233 11.2994 14.2626C11.2492 14.7906 11.25 15.4462 11.25 16.25H12ZM13.1938 12.3684L12.8019 11.7289C12.3646 11.9969 11.9969 12.3646 11.7289 12.8019L12.3684 13.1938L13.0079 13.5856C13.1522 13.3502 13.3502 13.1522 13.5856 13.0079L13.1938 12.3684ZM16.1856 21.236L16.831 20.8539C16.7331 20.6885 16.6337 20.519 16.5341 20.3823C16.4252 20.233 16.2843 20.0764 16.0785 19.9566L15.7014 20.605L15.3243 21.2533C15.2873 21.2317 15.2834 21.213 15.3219 21.2658C15.3696 21.3313 15.4279 21.4282 15.5402 21.618L16.1856 21.236ZM14.8948 20.4958L14.8819 21.2457C15.1084 21.2496 15.2271 21.2524 15.3117 21.2617C15.3824 21.2696 15.3638 21.2762 15.3243 21.2533L15.7014 20.605L16.0785 19.9566C15.8701 19.8355 15.6609 19.7912 15.4768 19.7708C15.3066 19.752 15.1064 19.7493 14.9077 19.7459L14.8948 20.4958ZM17.8144 21.236L18.4598 21.618C18.5721 21.4282 18.6304 21.3313 18.6781 21.2658C18.7166 21.213 18.7127 21.2317 18.6757 21.2533L18.2986 20.605L17.9215 19.9566C17.7156 20.0764 17.5748 20.233 17.4659 20.3823C17.3663 20.519 17.2669 20.6885 17.169 20.8539L17.8144 21.236ZM19.1052 20.4958L19.0923 19.7459C18.8936 19.7493 18.6934 19.752 18.5232 19.7708C18.3391 19.7912 18.1298 19.8355 17.9215 19.9566L18.2986 20.605L18.6757 21.2533C18.6362 21.2762 18.6176 21.2696 18.6883 21.2617C18.7729 21.2524 18.8916 21.2496 19.1181 21.2457L19.1052 20.4958Z"
            fill="currentColor" />
        <path d="M10 3L5 21" stroke="currentColor" stroke-width="1.5" stroke-linecap="round"
            stroke-linejoin="round" />
        <path d="M18.9999 3L17.1943 9.5" stroke="currentColor" stroke-width="1.5" stroke-linecap="round"
            stroke-linejoin="round" />
        <path d="M22 9H4" stroke="currentColor" stroke-width="1.5" stroke-linecap="round"
            stroke-linejoin="round" />
        <path d="M2 16H9" stroke="currentColor" stroke-width="1.5" stroke-linecap="round"
            stroke-linejoin="round" />
    </symbol>
    <symbol id="presentation" viewBox="0 0 24 24"
        fill="none">
        <path d="M2 2H22" stroke="currentColor" stroke-width="1.5" stroke-linecap="round" />
        <path
            d="M9 10.5L10.2929 9.20711C10.6262 8.87377 10.7929 8.70711 11 8.70711C11.2071 8.70711 11.3738 8.87377 11.7071 9.20711L12.2929 9.79289C12.6262 10.1262 12.7929 10.2929 13 10.2929C13.2071 10.2929 13.3738 10.1262 13.7071 9.79289L15 8.5"
            stroke="currentColor" stroke-width="1.5" stroke-linecap="round" />
        <path d="M12 21L12 17" stroke="currentColor" stroke-width="1.5" stroke-linecap="round" />
        <path d="M10 22L12 21" stroke="currentColor" stroke-width="1.5" stroke-linecap="round" />
        <path d="M14 22L12 21" stroke="currentColor" stroke-width="1.5" stroke-linecap="round" />
        <path
            d="M20 2V10.5C20 13.5641 20 15.0962 18.9958 16.0481C17.9916 17 16.3753 17 13.1429 17H10.8571C7.62465 17 6.00841 17 5.00421 16.0481C4 15.0962 4 13.5641 4 10.5V2"
            stroke="currentColor" stroke-width="1.5" />
    </symbol>
</svg>