<svg width="1050" height="638" viewBox="0 0 1050 638" fill="none" xmlns="http://www.w3.org/2000/svg">
<path d="M360.11 0C399.825 3.28725e-05 432.133 32.3075 432.133 72.0225V164.622C432.133 187.36 450.55 205.777 473.288 205.777H576.712C599.45 205.777 617.867 187.36 617.867 164.622V72.0225C617.867 32.3075 650.175 2.92216e-05 689.89 0H772.2C811.915 0 844.223 32.3074 844.223 72.0225V370.399C844.223 393.138 862.64 411.555 885.378 411.555H977.978C1017.69 411.555 1050 443.862 1050 483.577V565.888C1050 605.603 1017.69 637.91 977.978 637.91H895.667C855.952 637.91 823.645 605.603 823.645 565.888V473.288C823.645 450.55 805.228 432.133 782.489 432.133H473.288C450.55 432.133 432.133 450.55 432.133 473.288V565.888C432.133 605.603 399.825 637.91 360.11 637.91H277.8C238.085 637.91 205.777 605.603 205.777 565.888V267.511C205.777 244.772 187.36 226.356 164.622 226.355H72.0225C32.3074 226.355 1.736e-06 194.048 0 154.333V72.0225C-1.736e-06 32.3074 32.3074 1.736e-06 72.0225 0H360.11Z" fill="#D4EAF8"/>
</svg>
