<svg width="1050" height="639" viewBox="0 0 1050 639" fill="none" xmlns="http://www.w3.org/2000/svg">
<path d="M977.94 0H895.587C855.852 0 823.529 32.3235 823.529 72.0588V164.706C823.529 187.456 805.102 205.882 782.352 205.882H473.529C450.779 205.882 432.353 187.456 432.353 164.706V72.0588C432.353 32.3235 400.029 0 360.294 0H277.941C238.206 0 205.882 32.3235 205.882 72.0588V164.706C205.882 187.456 187.456 205.882 164.706 205.882H72.0588C32.3235 205.882 0 238.206 0 277.941V360.294C0 400.029 32.3235 432.353 72.0588 432.353H164.706C187.456 432.353 205.882 450.779 205.882 473.529V566.176C205.882 605.912 238.206 638.235 277.941 638.235H360.294C400.029 638.235 432.353 605.912 432.353 566.176V483.823C432.353 444.088 400.029 411.765 360.294 411.765H267.647C244.897 411.765 226.47 393.338 226.47 370.588V267.647C226.47 244.897 244.897 226.471 267.647 226.471H370.588C393.338 226.471 411.764 244.897 411.764 267.647V360.294C411.764 400.029 444.088 432.353 483.823 432.353H772.058C811.793 432.353 844.117 400.029 844.117 360.294V267.647C844.117 244.897 862.543 226.471 885.293 226.471H977.94C1017.68 226.471 1050 194.147 1050 154.412V72.0588C1050 32.3235 1017.68 0 977.94 0Z" fill="#D4EAF8"/>
</svg>
