<svg width="53" height="40" viewBox="0 0 53 40" fill="none" xmlns="http://www.w3.org/2000/svg">
<path d="M42.24 40C38.5067 40 35.4133 38.7733 32.96 36.32C30.6133 33.8667 29.44 30.3467 29.44 25.76C29.44 20.8533 30.8267 16 33.6 11.2C36.48 6.40001 40.48 2.66667 45.6 0L49.28 5.6C43.7333 9.44001 40.4267 14.2933 39.36 20.16C40.32 19.7333 41.44 19.52 42.72 19.52C45.7067 19.52 48.16 20.48 50.08 22.4C52 24.32 52.96 26.7733 52.96 29.76C52.96 32.7467 51.9467 35.2 49.92 37.12C47.8933 39.04 45.3333 40 42.24 40ZM12.8 40C9.06667 40 5.97333 38.7733 3.52 36.32C1.17333 33.8667 0 30.3467 0 25.76C0 20.8533 1.38667 16 4.16 11.2C7.04 6.40001 11.04 2.66667 16.16 0L19.84 5.6C14.2933 9.44001 10.9867 14.2933 9.92 20.16C10.88 19.7333 12 19.52 13.28 19.52C16.2667 19.52 18.72 20.48 20.64 22.4C22.56 24.32 23.52 26.7733 23.52 29.76C23.52 32.7467 22.5067 35.2 20.48 37.12C18.4533 39.04 15.8933 40 12.8 40Z" fill="#3B91CF"/>
</svg>
