<svg width="50" height="50" viewBox="0 0 50 50" fill="none" xmlns="http://www.w3.org/2000/svg">
<path d="M20.3807 7.29094C23.3411 5.90302 26.6587 5.90302 29.6192 7.29094L43.5592 13.8263C46.5914 15.2479 46.5914 20.1689 43.5592 21.5904L29.6194 28.1257C26.6589 29.5136 23.3413 29.5136 20.3809 28.1257L6.44085 21.5903C3.40863 20.1688 3.40864 15.2478 6.44086 13.8262L20.3807 7.29094Z" stroke="#3B91CF" stroke-width="2"/>
<path d="M4.16669 17.708V29.1663" stroke="#3B91CF" stroke-width="2" stroke-linecap="round"/>
<path d="M39.5834 23.958V34.636C39.5834 36.736 38.5344 38.7022 36.6972 39.7196C33.6381 41.4137 28.7417 43.7497 25 43.7497C21.2583 43.7497 16.3619 41.4137 13.3028 39.7196C11.4657 38.7022 10.4167 36.736 10.4167 34.636V23.958" stroke="#3B91CF" stroke-width="2" stroke-linecap="round"/>
</svg>
