<svg width="50" height="50" viewBox="0 0 50 50" fill="none" xmlns="http://www.w3.org/2000/svg">
<path d="M8.33337 37.5V12.5" stroke="#3B91CF" stroke-width="2" stroke-linecap="round"/>
<path d="M41.6666 12.5V37.5" stroke="#3B91CF" stroke-width="2" stroke-linecap="round"/>
<path d="M25 20.8337C34.2048 20.8337 41.6667 17.1027 41.6667 12.5003C41.6667 7.89795 34.2048 4.16699 25 4.16699C15.7953 4.16699 8.33337 7.89795 8.33337 12.5003C8.33337 17.1027 15.7953 20.8337 25 20.8337Z" stroke="#3B91CF" stroke-width="2"/>
<path d="M41.6667 25C41.6667 29.6024 34.2048 33.3333 25 33.3333C15.7953 33.3333 8.33337 29.6024 8.33337 25" stroke="#3B91CF" stroke-width="2"/>
<path d="M41.6667 37.5C41.6667 42.1024 34.2048 45.8333 25 45.8333C15.7953 45.8333 8.33337 42.1024 8.33337 37.5" stroke="#3B91CF" stroke-width="2"/>
</svg>
