<svg width="433" height="433" viewBox="0 0 433 433" fill="none" xmlns="http://www.w3.org/2000/svg">
<path d="M72.1667 433C32.3719 433 0 400.628 0 360.833V278.357C0 238.562 32.3719 206.19 72.1667 206.19H164.952C187.736 206.19 206.19 187.736 206.19 164.952V72.1667C206.19 32.3719 238.562 0 278.357 0H360.833C400.628 0 433 32.3719 433 72.1667V154.643C433 194.438 400.628 226.81 360.833 226.81H268.048C245.264 226.81 226.81 245.264 226.81 268.048V360.833C226.81 400.628 194.438 433 154.643 433H72.1667Z" fill="#D4EAF8"/>
</svg>
