<svg xmlns="http://www.w3.org/2000/svg">
    <symbol id="folder" viewBox="0 0 18 18" fill="none" xmlns="http://www.w3.org/2000/svg">
        <path d="M13.5 7.5L9.75 7.5" stroke="currentColor" stroke-width="1.5" stroke-linecap="round" />
        <path
            d="M7.5 2.25H12.375C12.7233 2.25 12.8975 2.25 13.0437 2.26925C14.0533 2.40217 14.8478 3.19667 14.9808 4.20632C15 4.35253 15 4.52668 15 4.875"
            stroke="currentColor" stroke-width="1.5" />
        <path
            d="M1.5 5.21231C1.5 4.55041 1.5 4.21946 1.55201 3.94379C1.78098 2.73023 2.73023 1.78098 3.94379 1.55201C4.21946 1.5 4.55041 1.5 5.21231 1.5C5.50232 1.5 5.64732 1.5 5.78668 1.51303C6.38749 1.56921 6.95739 1.80528 7.42196 2.19039C7.52971 2.27971 7.63224 2.38224 7.83731 2.58731L8.25 3C8.86183 3.61183 9.16775 3.91775 9.53409 4.12157C9.73533 4.23353 9.94879 4.32195 10.1703 4.38508C10.5734 4.5 11.0061 4.5 11.8713 4.5H12.1516C14.1258 4.5 15.113 4.5 15.7546 5.0771C15.8136 5.13018 15.8698 5.18635 15.9229 5.24537C16.5 5.88701 16.5 6.87415 16.5 8.84843V10.5C16.5 13.3284 16.5 14.7426 15.6213 15.6213C14.7426 16.5 13.3284 16.5 10.5 16.5H7.5C4.67157 16.5 3.25736 16.5 2.37868 15.6213C1.5 14.7426 1.5 13.3284 1.5 10.5V5.21231Z"
            stroke="currentColor" stroke-width="1.5" />
    </symbol>


    <symbol id="tag" viewBox="0 0 18 18" fill="none" xmlns="http://www.w3.org/2000/svg">
        <path
            d="M3.54636 12.1027C2.38721 10.9435 1.80764 10.3639 1.59198 9.61198C1.37632 8.86002 1.56063 8.06137 1.92923 6.46406L2.1418 5.54293C2.45192 4.1991 2.60697 3.52719 3.06708 3.06708C3.52719 2.60697 4.1991 2.45192 5.54293 2.1418L6.46406 1.92923C8.06137 1.56063 8.86002 1.37632 9.61198 1.59198C10.3639 1.80764 10.9435 2.38721 12.1027 3.54636L13.4749 4.91859C15.4916 6.93533 16.5 7.9437 16.5 9.19674C16.5 10.4498 15.4916 11.4582 13.4749 13.4749C11.4582 15.4916 10.4498 16.5 9.19674 16.5C7.9437 16.5 6.93533 15.4916 4.91859 13.4749L3.54636 12.1027Z"
            stroke="currentColor" stroke-width="1.5" />
        <circle cx="6.45531" cy="6.65924" r="1.5" transform="rotate(-45 6.45531 6.65924)"
            stroke="currentColor" stroke-width="1.5" />
        <path d="M8.65643 13.8748L13.8907 8.64038" stroke="currentColor" stroke-width="1.5"
            stroke-linecap="round" />
    </symbol>
</svg>