<svg width="51" height="50" viewBox="0 0 51 50" fill="none" xmlns="http://www.w3.org/2000/svg">
<path d="M4.5 25.0001C4.5 15.1792 4.5 10.2687 7.55097 7.21772C10.6019 4.16675 15.5124 4.16675 25.3333 4.16675C35.1543 4.16675 40.0647 4.16675 43.1157 7.21772C46.1667 10.2687 46.1667 15.1792 46.1667 25.0001C46.1667 34.821 46.1667 39.7315 43.1157 42.7824C40.0647 45.8334 35.1543 45.8334 25.3333 45.8334C15.5124 45.8334 10.6019 45.8334 7.55097 42.7824C4.5 39.7315 4.5 34.821 4.5 25.0001Z" stroke="#3B91CF" stroke-width="2"/>
<path d="M4.5 29.1667C4.5 23.3328 4.5 20.4158 5.63535 18.1876C6.63403 16.2276 8.22758 14.634 10.1876 13.6353C12.4158 12.5 15.3328 12.5 21.1667 12.5H29.5C35.3339 12.5 38.2508 12.5 40.4791 13.6353C42.4391 14.634 44.0326 16.2276 45.0313 18.1876C46.1667 20.4158 46.1667 23.3328 46.1667 29.1667" stroke="#3B91CF" stroke-width="2"/>
<path d="M35.7503 12.5V22.5158C35.7503 24.5469 35.7503 25.5625 35.4813 26.1682C34.8682 27.5485 33.3557 28.2928 31.888 27.9365C31.2439 27.7801 30.4393 27.1605 28.83 25.9213C27.9214 25.2217 27.467 24.8719 26.994 24.6663C25.9349 24.2062 24.7324 24.2062 23.6733 24.6663C23.2003 24.8719 22.746 25.2217 21.8373 25.9213C20.228 27.1605 19.4234 27.7801 18.7793 27.9365C17.3116 28.2928 15.7991 27.5485 15.186 26.1682C14.917 25.5625 14.917 24.5469 14.917 22.5158V12.5" stroke="#3B91CF" stroke-width="2"/>
</svg>
