<svg width="50" height="50" viewBox="0 0 50 50" fill="none" xmlns="http://www.w3.org/2000/svg">
<path d="M6.95819 35.4161C12.7112 45.3805 25.4526 48.7946 35.4171 43.0416C39.4787 40.6966 42.4521 37.1904 44.1598 33.1845C46.6416 27.3627 46.4505 20.4855 43.0426 14.5827C39.6346 8.67999 33.7743 5.07587 27.4916 4.31433C23.1685 3.79031 18.6454 4.6122 14.5837 6.95721C4.61929 12.7102 1.20522 25.4516 6.95819 35.4161Z" stroke="#3B91CF" stroke-width="2"/>
<path d="M32.2918 29.6874C32.2918 31.1257 31.1259 32.2916 29.6877 32.2916C28.2494 32.2916 27.0835 31.1257 27.0835 29.6874C27.0835 28.2492 28.2494 27.0833 29.6877 27.0833C31.1259 27.0833 32.2918 28.2492 32.2918 29.6874Z" stroke="#3B91CF" stroke-width="2"/>
<path d="M32.2918 20.3124C32.2918 21.7507 31.1259 22.9166 29.6877 22.9166C28.2494 22.9166 27.0835 21.7507 27.0835 20.3124C27.0835 18.8742 28.2494 17.7083 29.6877 17.7083C31.1259 17.7083 32.2918 18.8742 32.2918 20.3124Z" stroke="#3B91CF" stroke-width="2"/>
<path d="M22.9168 29.6874C22.9168 31.1257 21.7509 32.2916 20.3127 32.2916C18.8744 32.2916 17.7085 31.1257 17.7085 29.6874C17.7085 28.2492 18.8744 27.0833 20.3127 27.0833C21.7509 27.0833 22.9168 28.2492 22.9168 29.6874Z" stroke="#3B91CF" stroke-width="2"/>
<path d="M22.9168 20.3124C22.9168 21.7507 21.7509 22.9166 20.3127 22.9166C18.8744 22.9166 17.7085 21.7507 17.7085 20.3124C17.7085 18.8742 18.8744 17.7083 20.3127 17.7083C21.7509 17.7083 22.9168 18.8742 22.9168 20.3124Z" stroke="#3B91CF" stroke-width="2"/>
<path d="M29.6875 37.4583C29.9982 37.4583 30.25 37.7101 30.25 38.0208C30.25 38.3314 29.9982 38.5833 29.6875 38.5833C29.3768 38.5833 29.125 38.3314 29.125 38.0208C29.125 37.7101 29.3768 37.4583 29.6875 37.4583Z" fill="#3B91CF" stroke="#3B91CF" stroke-width="2"/>
<path d="M21.875 38.0208C21.875 38.8837 21.1754 39.5833 20.3125 39.5833C19.4496 39.5833 18.75 38.8837 18.75 38.0208C18.75 37.1578 19.4496 36.4583 20.3125 36.4583C21.1754 36.4583 21.875 37.1578 21.875 38.0208Z" fill="#3B91CF"/>
<path d="M31.25 38.0208C31.25 38.8837 30.5504 39.5833 29.6875 39.5833C28.8246 39.5833 28.125 38.8837 28.125 38.0208C28.125 37.1578 28.8246 36.4583 29.6875 36.4583C30.5504 36.4583 31.25 37.1578 31.25 38.0208Z" fill="#3B91CF"/>
<path d="M31.25 11.9792C31.25 12.8422 30.5504 13.5417 29.6875 13.5417C28.8246 13.5417 28.125 12.8422 28.125 11.9792C28.125 11.1163 28.8246 10.4167 29.6875 10.4167C30.5504 10.4167 31.25 11.1163 31.25 11.9792Z" fill="#3B91CF"/>
<path d="M21.875 38.0208C21.875 38.8837 21.1754 39.5833 20.3125 39.5833C19.4496 39.5833 18.75 38.8837 18.75 38.0208C18.75 37.1578 19.4496 36.4583 20.3125 36.4583C21.1754 36.4583 21.875 37.1578 21.875 38.0208Z" fill="#3B91CF"/>
<path d="M21.875 11.9792C21.875 12.8422 21.1754 13.5417 20.3125 13.5417C19.4496 13.5417 18.75 12.8422 18.75 11.9792C18.75 11.1163 19.4496 10.4167 20.3125 10.4167C21.1754 10.4167 21.875 11.1163 21.875 11.9792Z" fill="#3B91CF"/>
<path d="M38.021 18.75C38.8839 18.75 39.5835 19.4496 39.5835 20.3125C39.5835 21.1754 38.8839 21.875 38.021 21.875C37.1581 21.875 36.4585 21.1754 36.4585 20.3125C36.4585 19.4496 37.1581 18.75 38.021 18.75Z" fill="#3B91CF"/>
<path d="M11.979 18.75C12.8419 18.75 13.5415 19.4496 13.5415 20.3125C13.5415 21.1754 12.8419 21.875 11.979 21.875C11.1161 21.875 10.4165 21.1754 10.4165 20.3125C10.4165 19.4496 11.1161 18.75 11.979 18.75Z" fill="#3B91CF"/>
<path d="M38.021 28.125C38.8839 28.125 39.5835 28.8246 39.5835 29.6875C39.5835 30.5504 38.8839 31.25 38.021 31.25C37.1581 31.25 36.4585 30.5504 36.4585 29.6875C36.4585 28.8246 37.1581 28.125 38.021 28.125Z" fill="#3B91CF"/>
<path d="M11.979 28.125C12.8419 28.125 13.5415 28.8246 13.5415 29.6875C13.5415 30.5504 12.8419 31.25 11.979 31.25C11.1161 31.25 10.4165 30.5504 10.4165 29.6875C10.4165 28.8246 11.1161 28.125 11.979 28.125Z" fill="#3B91CF"/>
</svg>
