<svg width="52" height="52" viewBox="0 0 52 52" fill="none" xmlns="http://www.w3.org/2000/svg">
<path d="M47.6663 47.6667L4.33301 47.6667" stroke="white" stroke-width="2" stroke-linecap="round"/>
<path d="M6.5 47.6667V24.5856C6.5 22.7289 7.29396 20.9609 8.68164 19.7274L21.6816 8.17187C24.1444 5.98275 27.8556 5.98275 30.3184 8.17187L43.3184 19.7274C44.706 20.9609 45.5 22.7289 45.5 24.5856V47.6667" stroke="white" stroke-width="2" stroke-linecap="round"/>
<path d="M21.667 19.5H30.3337" stroke="white" stroke-width="1.5" stroke-linecap="round"/>
<path d="M19.5 33.5833H32.5" stroke="white" stroke-width="1.5" stroke-linecap="round"/>
<path d="M19.5 40.0833H32.5" stroke="white" stroke-width="1.5" stroke-linecap="round"/>
<path d="M39 47.6667V34.6667C39 30.5812 39 28.5384 37.7308 27.2692C36.4616 26 34.4188 26 30.3333 26H21.6667C17.5812 26 15.5384 26 14.2692 27.2692C13 28.5384 13 30.5812 13 34.6667V47.6667" stroke="white" stroke-width="1.5"/>
</svg>
