<svg width="1008" height="761" viewBox="0 0 1008 761" fill="none" xmlns="http://www.w3.org/2000/svg">
<path d="M577.756 760.754C530.306 760.754 491.707 722.226 491.707 674.863V319.026C491.707 291.909 469.703 269.945 442.537 269.945H319.61C292.443 269.945 270.439 291.909 270.439 319.026V429.458C270.439 476.821 231.84 515.35 184.39 515.35H86.0488C38.599 515.35 0 476.821 0 429.458V331.296C0 283.933 38.599 245.405 86.0488 245.405H196.683C223.85 245.405 245.854 223.441 245.854 196.324V85.8916C245.854 38.5285 284.453 0 331.902 0H430.244C477.694 0 516.293 38.5285 516.293 85.8916V196.324C516.293 223.441 538.297 245.405 565.463 245.405H688.39C715.557 245.405 737.561 223.441 737.561 196.324V85.8916C737.561 38.5285 776.16 0 823.61 0H921.951C969.401 0 1008 38.5285 1008 85.8916V184.053C1008 231.417 969.401 269.945 921.951 269.945H811.317C784.15 269.945 762.146 291.909 762.146 319.026V441.728C762.146 468.846 784.15 490.809 811.317 490.809H921.951C969.401 490.809 1008 529.338 1008 576.701V674.863C1008 722.226 969.401 760.754 921.951 760.754H577.756Z" fill="#ECEEF1"/>
</svg>
