<svg width="18" height="18" viewBox="0 0 18 18" fill="none" xmlns="http://www.w3.org/2000/svg">
<g clip-path="url(#clip0_2001_512)">
<path d="M3.54636 12.1027C2.38721 10.9435 1.80764 10.3639 1.59198 9.61198C1.37632 8.86002 1.56063 8.06137 1.92923 6.46406L2.1418 5.54293C2.45192 4.1991 2.60697 3.52719 3.06708 3.06708C3.52719 2.60697 4.1991 2.45192 5.54293 2.1418L6.46406 1.92923C8.06137 1.56063 8.86002 1.37632 9.61198 1.59198C10.3639 1.80764 10.9435 2.38721 12.1027 3.54636L13.4749 4.91859C15.4916 6.93533 16.5 7.9437 16.5 9.19674C16.5 10.4498 15.4916 11.4582 13.4749 13.4749C11.4582 15.4916 10.4498 16.5 9.19674 16.5C7.9437 16.5 6.93533 15.4916 4.91859 13.4749L3.54636 12.1027Z" stroke="#3B91CF" stroke-width="1.5"/>
<circle cx="6.45531" cy="6.65918" r="1.5" transform="rotate(-45 6.45531 6.65918)" stroke="#3B91CF" stroke-width="1.5"/>
<path d="M8.65643 13.8748L13.8907 8.64032" stroke="#3B91CF" stroke-width="1.5" stroke-linecap="round"/>
</g>
<defs>
<clipPath id="clip0_2001_512">
<rect width="18" height="18" fill="white"/>
</clipPath>
</defs>
</svg>
