<svg width="50" height="50" viewBox="0 0 50 50" fill="none" xmlns="http://www.w3.org/2000/svg">
<path d="M6.25 21.7014C6.25 15.0398 6.25 11.709 7.03649 10.5884C7.82298 9.46787 10.9548 8.39582 17.2186 6.25173L18.4119 5.84324C21.677 4.72558 23.3096 4.16675 25 4.16675C26.6904 4.16675 28.323 4.72558 31.5881 5.84324L32.7814 6.25173C39.0452 8.39582 42.177 9.46787 42.9635 10.5884C43.75 11.709 43.75 15.0398 43.75 21.7014C43.75 22.7077 43.75 23.7989 43.75 24.9821C43.75 36.7281 34.9188 42.4282 29.378 44.8486C27.875 45.5051 27.1235 45.8334 25 45.8334C22.8765 45.8334 22.125 45.5051 20.622 44.8486C15.0812 42.4282 6.25 36.7281 6.25 24.9821C6.25 23.7989 6.25 22.7077 6.25 21.7014Z" stroke="#3B91CF" stroke-width="2"/>
<ellipse cx="24.9997" cy="18.7499" rx="4.16667" ry="4.16667" stroke="#3B91CF" stroke-width="2"/>
<path d="M33.3337 31.2499C33.3337 33.5511 33.3337 35.4166 25.0003 35.4166C16.667 35.4166 16.667 33.5511 16.667 31.2499C16.667 28.9487 20.398 27.0833 25.0003 27.0833C29.6027 27.0833 33.3337 28.9487 33.3337 31.2499Z" stroke="#3B91CF" stroke-width="2"/>
</svg>
