<svg width="846" height="640" viewBox="0 0 846 640" fill="none" xmlns="http://www.w3.org/2000/svg">
<path d="M361.089 0C400.912 0 433.307 32.4119 433.307 72.2558V165.156C433.307 187.968 451.774 206.445 474.574 206.445H577.742C600.542 206.445 619.01 187.968 619.01 165.156V72.2558C619.01 32.4119 651.404 0 691.227 0H773.762C793.062 0 810.617 7.61322 823.585 19.9953C837.388 33.1634 846 51.7317 846 72.276V567.744C846 607.588 813.605 640 773.782 640H484.911L484.891 639.98H278.554C238.731 639.98 206.337 607.568 206.337 567.724V474.824C206.337 452.012 187.869 433.535 165.069 433.535H72.2178C32.3948 433.535 0 401.123 0 361.279V278.701C0 238.857 32.3948 206.445 72.2178 206.445H165.069C187.869 206.445 206.337 187.968 206.337 165.156V72.2558C206.337 32.4119 238.731 0 278.554 0H361.089Z" fill="#D4EAF8"/>
</svg>
