<svg width="410" height="310" viewBox="0 0 410 310" fill="none" xmlns="http://www.w3.org/2000/svg">
<g clip-path="url(#clip0_226_17789)">
<path d="M235 310C215.7 310 200 294.3 200 275V130C200 118.95 191.05 110 180 110H130C118.95 110 110 118.95 110 130V175C110 194.3 94.3 210 75 210H35C15.7 210 0 194.3 0 175V135C0 115.7 15.7 100 35 100H80C91.05 100 100 91.05 100 80V35C100 15.7 115.7 0 135 0H175C194.3 0 210 15.7 210 35V80C210 91.05 218.95 100 230 100H280C291.05 100 300 91.05 300 80V35C300 15.7 315.7 0 335 0H375C394.3 0 410 15.7 410 35V75C410 94.3 394.3 110 375 110H330C318.95 110 310 118.95 310 130V180C310 191.05 318.95 200 330 200H375C394.3 200 410 215.7 410 235V275C410 294.3 394.3 310 375 310H235Z" fill="#FFA92E"/>
</g>
<defs>
<clipPath id="clip0_226_17789">
<rect width="410" height="310" fill="white"/>
</clipPath>
</defs>
</svg>
