<svg width="510" height="311" viewBox="0 0 510 311" fill="none" xmlns="http://www.w3.org/2000/svg">
<path d="M475 0.0649414H435C415.7 0.0649414 400 15.7649 400 35.0649V80.0649C400 91.1149 391.05 100.065 380 100.065H230C218.95 100.065 210 91.1149 210 80.0649V35.0649C210 15.7649 194.3 0.0649414 175 0.0649414H135C115.7 0.0649414 100 15.7649 100 35.0649V80.0649C100 91.1149 91.05 100.065 80 100.065H35C15.7 100.065 0 115.765 0 135.065V175.065C0 194.365 15.7 210.065 35 210.065H80C91.05 210.065 100 219.015 100 230.065V275.065C100 294.365 115.7 310.065 135 310.065H175C194.3 310.065 210 294.365 210 275.065V235.065C210 215.765 194.3 200.065 175 200.065H130C118.95 200.065 110 191.115 110 180.065V130.065C110 119.015 118.95 110.065 130 110.065H180C191.05 110.065 200 119.015 200 130.065V175.065C200 194.365 215.7 210.065 235 210.065H375C394.3 210.065 410 194.365 410 175.065V130.065C410 119.015 418.95 110.065 430 110.065H475C494.3 110.065 510 94.3649 510 75.0649V35.0649C510 15.7649 494.3 0.0649414 475 0.0649414Z" fill="#FFA92E"/>
</svg>
