<svg width="50" height="50" viewBox="0 0 50 50" fill="none" xmlns="http://www.w3.org/2000/svg">
<circle cx="18.75" cy="18.7497" r="4.16667" stroke="#3B91CF" stroke-width="2"/>
<path d="M27.0834 31.2497C27.0834 33.5509 27.0834 35.4163 18.75 35.4163C10.4167 35.4163 10.4167 33.5509 10.4167 31.2497C10.4167 28.9485 14.1476 27.083 18.75 27.083C23.3524 27.083 27.0834 28.9485 27.0834 31.2497Z" stroke="#3B91CF" stroke-width="2"/>
<path d="M4.16669 24.9997C4.16669 17.1429 4.16669 13.2146 6.60746 10.7738C9.04824 8.33301 12.9766 8.33301 20.8334 8.33301H29.1667C37.0234 8.33301 40.9518 8.33301 43.3926 10.7738C45.8334 13.2146 45.8334 17.1429 45.8334 24.9997C45.8334 32.8564 45.8334 36.7848 43.3926 39.2256C40.9518 41.6663 37.0234 41.6663 29.1667 41.6663H20.8334C12.9766 41.6663 9.04824 41.6663 6.60746 39.2256C4.16669 36.7848 4.16669 32.8564 4.16669 24.9997Z" stroke="#3B91CF" stroke-width="2"/>
<path d="M39.5833 25H31.25" stroke="#3B91CF" stroke-width="2" stroke-linecap="round"/>
<path d="M39.5833 18.75H29.1666" stroke="#3B91CF" stroke-width="2" stroke-linecap="round"/>
<path d="M39.5833 31.25H33.3333" stroke="#3B91CF" stroke-width="2" stroke-linecap="round"/>
</svg>
