<svg width="33" height="32" viewBox="0 0 33 32" fill="none" xmlns="http://www.w3.org/2000/svg">
<path d="M27.881 26.2426C29.8337 24.4853 29.8337 21.6569 29.8337 16C29.8337 10.3431 29.8337 7.51472 27.881 5.75736C25.9284 4 22.7857 4 16.5003 4C10.2149 4 7.07223 4 5.11961 5.75736C3.16699 7.51472 3.16699 10.3431 3.16699 16C3.16699 21.6569 3.16699 24.4853 5.11961 26.2426C7.07224 28 10.2149 28 16.5003 28C22.7857 28 25.9284 28 27.881 26.2426Z" stroke="white" stroke-width="2"/>
<path d="M11.1667 22.6667C10.5467 22.6667 10.2367 22.6667 9.98236 22.5986C9.29218 22.4137 8.75308 21.8746 8.56815 21.1844C8.5 20.9301 8.5 20.6201 8.5 20.0001L8.5 12.0001C8.5 11.3801 8.5 11.0701 8.56815 10.8158C8.75308 10.1256 9.29218 9.5865 9.98236 9.40156C10.2367 9.33342 10.5467 9.33342 11.1667 9.33342C11.7866 9.33342 12.0966 9.33342 12.351 9.40156C13.0412 9.5865 13.5802 10.1256 13.7652 10.8158C13.8333 11.0701 13.8333 11.3801 13.8333 12.0001L13.8333 20.0001C13.8333 20.6201 13.8333 20.9301 13.7652 21.1844C13.5803 21.8746 13.0412 22.4137 12.351 22.5986C12.0966 22.6667 11.7866 22.6667 11.1667 22.6667Z" stroke="white" stroke-width="2"/>
<path d="M17 21.3337C17 20.8736 17.3729 20.4999 17.833 20.4998C18.2932 20.4998 18.667 20.8735 18.667 21.3337C18.6668 21.7938 18.2931 22.1667 17.833 22.1667C17.373 22.1666 17.0002 21.7937 17 21.3337Z" fill="white" stroke="white"/>
<path d="M22.333 21.3337C22.333 20.8736 22.7059 20.4999 23.166 20.4998C23.6263 20.4998 24 20.8735 24 21.3337C23.9998 21.7938 23.6261 22.1667 23.166 22.1667C22.706 22.1666 22.3332 21.7937 22.333 21.3337Z" fill="white" stroke="white"/>
<path d="M17 16.0002C17 15.5401 17.3729 15.1664 17.833 15.1663C18.2932 15.1663 18.667 15.54 18.667 16.0002C18.6668 16.4603 18.2931 16.8333 17.833 16.8333C17.373 16.8331 17.0002 16.4602 17 16.0002Z" fill="white" stroke="white"/>
<ellipse cx="23.1663" cy="15.9999" rx="1.33333" ry="1.33333" transform="rotate(-90 23.1663 15.9999)" fill="white"/>
<circle cx="17.8333" cy="10.6667" r="1.33333" transform="rotate(-90 17.8333 10.6667)" fill="white"/>
<circle cx="23.1663" cy="10.6667" r="1.33333" transform="rotate(-90 23.1663 10.6667)" fill="white"/>
</svg>
