<svg width="33" height="32" viewBox="0 0 33 32" fill="none" xmlns="http://www.w3.org/2000/svg">
<path d="M16.5 28C21.5283 28 26.7091 28 28.2712 26.2426C29.8333 24.4853 29.8333 21.6569 29.8333 16C29.8333 10.3431 29.8333 7.51472 28.2712 5.75736C26.7091 4 21.5283 4 16.5 4" stroke="white" stroke-width="2"/>
<path d="M19.4362 12.4528L17.0333 4.44312C16.7951 3.64912 16.676 3.25212 16.3905 3.0002C16.3349 2.95113 16.2753 2.90678 16.2123 2.86762C15.889 2.66658 15.4745 2.66658 14.6456 2.66658C11.3787 2.66658 9.74525 2.66658 8.64245 3.56389C8.43049 3.73636 8.23676 3.93008 8.0643 4.14204C7.16699 5.24485 7.16699 6.87828 7.16699 10.1452L7.16699 21.8547C7.16699 25.1216 7.16699 26.755 8.0643 27.8578C8.23676 28.0698 8.43049 28.2635 8.64245 28.4359C9.74525 29.3333 11.3787 29.3333 14.6456 29.3333C15.4745 29.3333 15.889 29.3333 16.2123 29.1322C16.2753 29.0931 16.3349 29.0487 16.3905 28.9996C16.676 28.7477 16.7951 28.3507 17.0333 27.5567L19.4362 19.547" stroke="white" stroke-width="2"/>
<path d="M7.16699 23.3333C7.13917 22.2353 6.4402 21.1209 5.40742 20.7473C5.37565 20.7358 5.34031 20.7241 5.26963 20.7005L5.16699 20.6663C4.99825 20.61 4.91384 20.5819 4.83899 20.5518C3.88316 20.1676 3.23415 19.2671 3.17187 18.2388C3.16699 18.1583 3.16699 18.0693 3.16699 17.8914L3.16699 14.1078C3.16699 13.9299 3.16699 13.841 3.17187 13.7604C3.23415 12.7321 3.88316 11.8317 4.83899 11.4474C4.91385 11.4173 4.99823 11.3892 5.16699 11.333L5.26962 11.2987C5.33989 11.2753 5.37574 11.2634 5.40742 11.2519C6.4402 10.8783 7.13917 9.76451 7.16699 8.66658" stroke="white" stroke-width="1.5"/>
<path d="M17.167 13.3333L17.167 18.6666C17.167 19.0348 17.4655 19.3333 17.8337 19.3333L20.7156 19.3333C20.9882 19.3333 21.2334 19.1673 21.3346 18.9142L21.708 17.9807C22.2166 16.7091 22.2166 15.2907 21.708 14.0192L21.3346 13.0857C21.2334 12.8326 20.9882 12.6666 20.7156 12.6666L17.8337 12.6666C17.4655 12.6666 17.167 12.9651 17.167 13.3333Z" stroke="white" stroke-width="1.5" stroke-linecap="round"/>
</svg>
