<svg width="32" height="32" viewBox="0 0 32 32" fill="none" xmlns="http://www.w3.org/2000/svg">
<path d="M29.3337 29.3334L2.66699 29.3334" stroke="white" stroke-width="2" stroke-linecap="round"/>
<path d="M22.6663 29.3333V7.99996C22.6663 5.4858 22.6663 4.22872 21.8853 3.44767C21.1042 2.66663 19.8472 2.66663 17.333 2.66663H14.6663C12.1522 2.66663 10.8951 2.66663 10.1141 3.44767C9.33301 4.22872 9.33301 5.4858 9.33301 7.99996V29.3333" stroke="white" stroke-width="2"/>
<path d="M27.9997 29.3333V15.3333C27.9997 13.4607 27.9997 12.5244 27.5503 11.8518C27.3557 11.5606 27.1057 11.3106 26.8145 11.116C26.1419 10.6666 25.2056 10.6666 23.333 10.6666" stroke="white" stroke-width="1.5"/>
<path d="M4 29.3333V15.3333C4 13.4607 4 12.5244 4.44941 11.8518C4.64397 11.5606 4.89397 11.3106 5.18515 11.116C5.85774 10.6666 6.79405 10.6666 8.66667 10.6666" stroke="white" stroke-width="1.5"/>
<path d="M16 29.3334V25.3334" stroke="white" stroke-width="1.5" stroke-linecap="round"/>
<path d="M13.333 6.66663H18.6663" stroke="white" stroke-width="1.5" stroke-linecap="round"/>
<path d="M13.333 10.6666H18.6663" stroke="white" stroke-width="1.5" stroke-linecap="round"/>
<path d="M13.333 14.6666H18.6663" stroke="white" stroke-width="1.5" stroke-linecap="round"/>
<path d="M13.333 18.6666H18.6663" stroke="white" stroke-width="1.5" stroke-linecap="round"/>
</svg>
